<svg version="1" xmlns="http://www.w3.org/2000/svg" width="21.333" height="21.333" viewBox="0 0 16.000000 16.000000"><path d="M4.548 1.999L1.09 3.997v8.008l3.458 1.997 3.458 1.996.081-.043c.045-.025 1.602-.921 3.463-1.995l3.381-1.955V3.997L11.55 2.042C9.69.968 8.132.07 8.087.046l-.08-.042-3.46 1.995zm4.047 4.013v.225l-1.57.007c-1.115.002-1.58.01-1.603.029-.043.038-.043 1.957 0 1.995.02.016.25.027.692.03l.66.006v.449l-.678.007-.68.005v.647c0 .355-.007.667-.014.696-.014.05-.02.052-.265.045l-.25-.006-.007-2.158c-.002-1.186 0-2.17.007-2.186.007-.022.391-.027 1.858-.022l1.85.006v.225zm1.804-.202c.357.085.566.296.658.663.045.182.04.696-.009.851-.07.223-.23.43-.388.501-.03.014-.054.032-.054.039 0 .006.045.038.101.067.182.097.303.265.386.53.032.106.04.207.04.472-.001.513-.087.77-.325.984-.225.203-.434.245-1.157.236l-.54-.006-.006-2.158c-.002-1.186 0-2.17.007-2.186.015-.043 1.098-.038 1.287.007zM8.557 7.084c.018.018.027.101.027.225 0 .242 0 .242-.324.242h-.238l-.005 1.33-.006 1.333-.245.007c-.182.004-.252-.003-.266-.023a27.347 27.347 0 0 1-.017-1.339V7.551h-.616a9.19 9.19 0 0 1-.652-.013c-.029-.011-.036-.054-.036-.232 0-.121.007-.227.016-.233.007-.01.537-.016 1.175-.016.872 0 1.166.007 1.187.027zM6.46 9.57c.054.108.059.113.18.126.067.01.123.023.123.032a.38.38 0 0 1-.08.094c-.08.074-.081.079-.068.204.007.072.005.13-.004.13a1.057 1.057 0 0 1-.117-.053l-.101-.054-.106.054a1.34 1.34 0 0 1-.114.054c-.005 0 0-.056.013-.126l.02-.126-.085-.087c-.047-.048-.081-.09-.074-.095a.7.7 0 0 1 .121-.03c.103-.017.117-.028.169-.125a.995.995 0 0 1 .06-.108.68.68 0 0 1 .063.11z"/><path d="M9.658 6.26c-.012.01-.018.33-.018.712v.692h.254c.294 0 .393-.023.498-.115.126-.11.158-.23.158-.593 0-.436-.052-.562-.27-.654-.094-.038-.593-.074-.622-.043zM9.63 8.17c-.017.046-.017 1.433 0 1.48.012.03.052.036.212.036.499 0 .678-.115.744-.472.04-.23.018-.636-.045-.775-.106-.238-.203-.286-.6-.299-.26-.009-.297-.004-.31.03z"/></svg>