<svg xmlns="http://www.w3.org/2000/svg" width="24.189" height="19.658" viewBox="0 0 24.189 19.658"><path fill="#D5D6D6" d="M24.19 2.327a9.972 9.972 0 0 1-2.853.782A5 5 0 0 0 23.52.359c-.96.566-2.02.98-3.15 1.2A5.009 5.009 0 0 0 16.744 0a4.963 4.963 0 0 0-4.833 6.092A14.053 14.053 0 0 1 1.69.91a4.91 4.91 0 0 0-.673 2.494 4.96 4.96 0 0 0 2.207 4.13 4.927 4.927 0 0 1-2.25-.62v.062a4.966 4.966 0 0 0 3.98 4.868 4.918 4.918 0 0 1-1.306.172c-.32 0-.632-.03-.936-.088a4.97 4.97 0 0 0 4.637 3.446A9.944 9.944 0 0 1 0 17.428a14.025 14.025 0 0 0 7.607 2.23c9.128 0 14.122-7.563 14.122-14.12 0-.217-.01-.43-.02-.644a9.967 9.967 0 0 0 2.474-2.567z"/></svg>