<svg width="262" height="25" viewBox="0 0 262 25" xmlns="http://www.w3.org/2000/svg"><title>logo</title><path d="M10.928 5.864v3.384l-7.752 2.976 7.752 3v3.384L.056 14.168v-3.864l10.872-4.44zm19.328 3.432a6.024 6.024 0 0 0-1.884-1.668c-.728-.408-1.436-.612-2.124-.612-.752 0-1.432.192-2.04.576a4.038 4.038 0 0 0-1.44 1.596c-.352.68-.528 1.444-.528 2.292 0 .848.176 1.612.528 2.292.352.68.832 1.216 1.44 1.608a3.685 3.685 0 0 0 2.04.588c.64 0 1.324-.176 2.052-.528A6.692 6.692 0 0 0 30.256 14l2.88 3.072a10.226 10.226 0 0 1-3.3 2.376c-1.288.592-2.564.888-3.828.888-1.68 0-3.196-.38-4.548-1.14a8.256 8.256 0 0 1-3.18-3.156c-.768-1.344-1.152-2.848-1.152-4.512 0-1.632.392-3.108 1.176-4.428a8.35 8.35 0 0 1 3.24-3.108c1.376-.752 2.92-1.128 4.632-1.128 1.264 0 2.528.272 3.792.816 1.264.544 2.32 1.272 3.168 2.184l-2.88 3.432zm9.392-6.12h13.056v3.84H44.64v3.36h7.488v3.84H44.64V20h-4.992V3.176zm19.856 0h5.352l4.512 9.336 4.488-9.336h5.352V20h-4.392v-9.984l-3.84 8.328h-3.24l-3.84-8.328V20h-4.392V3.176zm27.536 0h4.992v12.648h7.056V20H87.04V3.176zm27.032 0c1.296 0 2.432.172 3.408.516.976.344 1.728.836 2.256 1.476.528.64.792 1.392.792 2.256 0 .848-.256 1.6-.768 2.256-.512.656-1.208 1.112-2.088 1.368 1.024.208 1.844.7 2.46 1.476.616.776.924 1.7.924 2.772 0 .944-.272 1.772-.816 2.484-.544.712-1.316 1.26-2.316 1.644-1 .384-2.164.576-3.492.576h-8.616V3.176h8.256zm-.264 6.6c.496 0 .888-.132 1.176-.396.288-.264.432-.62.432-1.068 0-.432-.144-.772-.432-1.02-.288-.248-.68-.372-1.176-.372h-3.024v2.856h3.024zm0 6.48c.64.016 1.148-.12 1.524-.408.376-.288.564-.68.564-1.176 0-.464-.188-.828-.564-1.092-.376-.264-.884-.388-1.524-.372h-3.024v3.048h3.024zm20.48-9.504c1.84 0 3.276.42 4.308 1.26 1.032.84 1.548 2.012 1.548 3.516V20h-4.752v-1.44c-.4.528-.924.936-1.572 1.224-.648.288-1.396.432-2.244.432-1.376 0-2.456-.372-3.24-1.116-.784-.744-1.176-1.74-1.176-2.988 0-1.264.428-2.236 1.284-2.916.856-.68 2.108-1.028 3.756-1.044h3.192v-.048c0-.544-.192-.968-.576-1.272-.384-.304-.944-.456-1.68-.456-.528 0-1.14.08-1.836.24a12.18 12.18 0 0 0-2.1.696L128 8.096c2.208-.896 4.304-1.344 6.288-1.344zm-1.104 10.296c.496 0 .944-.12 1.344-.36.4-.24.688-.568.864-.984v-1.176h-2.208c-.976 0-1.464.408-1.464 1.224 0 .416.128.736.384.96.256.224.616.336 1.08.336zm27.992-14.856V20h-4.848v-1.488a4.462 4.462 0 0 1-1.56 1.224 4.65 4.65 0 0 1-2.016.432c-1.2 0-2.256-.28-3.168-.84-.912-.56-1.62-1.348-2.124-2.364-.504-1.016-.756-2.204-.756-3.564 0-1.328.244-2.492.732-3.492s1.18-1.772 2.076-2.316c.896-.544 1.936-.816 3.12-.816.768 0 1.464.144 2.088.432a4.51 4.51 0 0 1 1.608 1.248V2.192h4.848zm-7.2 14.256c.704 0 1.272-.268 1.704-.804.432-.536.648-1.244.648-2.124 0-.864-.216-1.564-.648-2.1-.432-.536-1-.804-1.704-.804-.72 0-1.296.268-1.728.804-.432.536-.648 1.236-.648 2.1 0 .88.216 1.588.648 2.124.432.536 1.008.804 1.728.804zm28.016-9.504v11.928c0 1.2-.3 2.256-.9 3.168-.6.912-1.44 1.612-2.52 2.1s-2.332.732-3.756.732c-1.152 0-2.256-.16-3.312-.48-1.056-.32-1.96-.728-2.712-1.224l1.608-3.264c.576.384 1.216.68 1.92.888.704.208 1.4.312 2.088.312.864 0 1.544-.188 2.04-.564.496-.376.744-.884.744-1.524v-1.32c-.864 1.04-2.032 1.56-3.504 1.56-1.056 0-1.996-.26-2.82-.78-.824-.52-1.472-1.26-1.944-2.22-.472-.96-.708-2.064-.708-3.312 0-1.216.228-2.292.684-3.228.456-.936 1.092-1.66 1.908-2.172.816-.512 1.744-.768 2.784-.768 1.52 0 2.72.528 3.6 1.584V6.944h4.8zm-7.032 8.832c.672 0 1.212-.248 1.62-.744.408-.496.612-1.144.612-1.944 0-.832-.204-1.496-.612-1.992-.408-.496-.948-.744-1.62-.744-.656 0-1.188.252-1.596.756-.408.504-.612 1.164-.612 1.98 0 .8.204 1.448.612 1.944.408.496.94.744 1.596.744zm20.768-9c2.144 0 3.816.636 5.016 1.908 1.2 1.272 1.8 3.012 1.8 5.22 0 .336-.008.584-.024.744h-8.784c.192.624.508 1.104.948 1.44.44.336.972.504 1.596.504 1.008 0 1.968-.416 2.88-1.248l2.52 2.472a6.71 6.71 0 0 1-2.508 1.752c-.984.4-2.084.6-3.3.6-1.44 0-2.688-.276-3.744-.828-1.056-.552-1.868-1.328-2.436-2.328-.568-1-.852-2.164-.852-3.492 0-1.344.288-2.524.864-3.54a5.997 5.997 0 0 1 2.424-2.364c1.04-.56 2.24-.84 3.6-.84zm2.016 5.496c.016-.64-.16-1.168-.528-1.584-.368-.416-.848-.624-1.44-.624-.56 0-1.024.2-1.392.6-.368.4-.616.936-.744 1.608h4.104zm20.912-.912c-1.776-.912-3.2-1.368-4.272-1.368-.304 0-.544.052-.72.156a.51.51 0 0 0-.264.468c0 .24.164.436.492.588.328.152.852.324 1.572.516.96.272 1.756.544 2.388.816a4.506 4.506 0 0 1 1.656 1.236c.472.552.708 1.26.708 2.124 0 1.328-.524 2.38-1.572 3.156-1.048.776-2.436 1.164-4.164 1.164-1.152 0-2.252-.156-3.3-.468a9.485 9.485 0 0 1-2.844-1.38l1.488-3.048c.816.528 1.628.928 2.436 1.2.808.272 1.572.408 2.292.408.336 0 .6-.052.792-.156.192-.104.288-.252.288-.444 0-.24-.156-.436-.468-.588-.312-.152-.828-.324-1.548-.516-.928-.256-1.704-.52-2.328-.792a4.482 4.482 0 0 1-1.632-1.224c-.464-.544-.696-1.248-.696-2.112 0-1.344.512-2.408 1.536-3.192 1.024-.784 2.368-1.176 4.032-1.176 2 0 3.912.528 5.736 1.584l-1.608 3.048zM242.696.608h4.056l-7.848 21.96h-4.056l7.848-21.96zm7.688 17.784v-3.384l7.752-2.976-7.752-3V5.648l10.872 4.44v3.864l-10.872 4.44z" fill="#44484D" fill-rule="evenodd"/></svg>