<svg width="100" height="100" viewBox="0 0 100 100" xmlns="http://www.w3.org/2000/svg"><title>mark</title><g fill="none" fill-rule="evenodd"><circle fill="#1F2E39" cx="50" cy="50" r="50"/><path d="M25.344 45.404a6.526 6.526 0 0 0-2.041-1.807c-.789-.442-1.556-.663-2.301-.663-.815 0-1.551.208-2.21.624-.659.416-1.179.992-1.56 1.729-.381.737-.572 1.564-.572 2.483s.19 1.746.572 2.483a4.472 4.472 0 0 0 1.56 1.742 3.992 3.992 0 0 0 2.21.637c.693 0 1.434-.19 2.223-.572a7.25 7.25 0 0 0 2.119-1.56l3.12 3.328c-.988 1.075-2.18 1.933-3.575 2.574-1.395.641-2.778.962-4.147.962-1.82 0-3.462-.412-4.927-1.235a8.944 8.944 0 0 1-3.445-3.419c-.832-1.456-1.248-3.085-1.248-4.888 0-1.768.425-3.367 1.274-4.797.85-1.43 2.02-2.552 3.51-3.367 1.49-.815 3.163-1.222 5.018-1.222 1.37 0 2.739.295 4.108.884 1.37.59 2.513 1.378 3.432 2.366l-3.12 3.718zm6.758-6.63h14.144v4.16H37.51v3.64h8.112v4.16H37.51V57h-5.408V38.774zm18.094 0h5.798l4.888 10.114 4.862-10.114h5.798V57h-4.758V46.184l-4.16 9.022h-3.51l-4.16-9.022V57h-4.758V38.774zm26.414 0h5.408v13.702h7.644V57H76.61V38.774z" fill="#FFF"/></g></svg>