<svg width="253" height="36" viewBox="0 0 253 36" xmlns="http://www.w3.org/2000/svg"><title>available-on-forgebox</title><g fill="none" fill-rule="evenodd"><path fill="#5593C8" fill-rule="nonzero" d="M25.083 0H253.003v35H25.083z"/><path fill="#A7BFC1" fill-rule="nonzero" d="M0 .029h135.62v35H0z"/><g fill="#FFF"><path d="M19.18 20.014h-3.305L15.184 22h-1.541l3.222-8.531h1.33L21.424 22h-1.547l-.697-1.986zm-2.889-1.196h2.473l-1.237-3.539-1.236 3.54zm11.154 1.325l2.168-6.674h1.63L28.171 22h-1.436l-3.058-8.531H25.3l2.144 6.674zm11.594-.13h-3.305L35.043 22h-1.541l3.223-8.531h1.33L41.283 22h-1.547l-.697-1.986zm-2.889-1.195h2.473l-1.236-3.539-1.237 3.54zM46.314 22h-1.476v-8.531h1.476V22zm5.805-1.184h3.873V22h-5.355v-8.531h1.482v7.347zm12.397-.802H61.21L60.52 22h-1.541l3.222-8.531h1.33L66.76 22h-1.547l-.697-1.986zm-2.889-1.196H64.1l-1.237-3.539-1.236 3.54zm8.6 3.182v-8.531h2.923c.965 0 1.7.193 2.204.58.503.387.755.963.755 1.728 0 .391-.105.743-.316 1.055-.211.313-.52.555-.926.727.461.125.818.36 1.07.706.251.345.377.76.377 1.245 0 .8-.256 1.416-.77 1.845-.514.43-1.25.645-2.206.645h-3.111zm1.482-3.85v2.666h1.646c.465 0 .829-.115 1.09-.345.262-.23.393-.551.393-.961 0-.887-.453-1.34-1.36-1.36H71.71zm0-1.09h1.453c.461 0 .821-.104 1.081-.313.26-.209.39-.505.39-.888 0-.422-.12-.726-.36-.914-.24-.187-.615-.28-1.123-.28H71.71v2.396zm10.07 3.756h3.873V22h-5.355v-8.531h1.482v7.347zm12.496-2.625h-3.504v2.625h4.096V22H89.29v-8.531h5.537v1.195h-4.055v2.356h3.504v1.171zm16.596-.234c0 .836-.144 1.57-.434 2.2-.289.631-.702 1.115-1.239 1.453-.537.338-1.155.507-1.854.507-.692 0-1.308-.169-1.849-.507-.54-.338-.959-.819-1.254-1.444-.295-.625-.444-1.346-.448-2.162v-.48c0-.833.147-1.567.442-2.204.295-.636.711-1.124 1.248-1.462.538-.337 1.154-.506 1.849-.506.695 0 1.312.167 1.849.5.537.335.952.815 1.245 1.442.293.627.441 1.356.445 2.188v.475zm-1.482-.445c0-.946-.179-1.67-.536-2.174-.358-.504-.865-.756-1.521-.756-.64 0-1.142.251-1.503.753s-.546 1.212-.554 2.13v.492c0 .938.183 1.662.548 2.174.365.512.872.767 1.52.767.657 0 1.162-.25 1.515-.75.354-.5.53-1.23.53-2.191v-.445zM121.615 22h-1.482l-3.803-6.053V22h-1.482v-8.531h1.482l3.815 6.076v-6.076h1.47V22zM150.544 13.588h6.528v1.92h-4.032v1.68h3.744v1.92h-3.744V22h-2.496v-8.412zm14.032-.156c.864 0 1.646.188 2.346.564.7.376 1.248.894 1.644 1.554.396.66.594 1.402.594 2.226 0 .832-.198 1.582-.594 2.25a4.202 4.202 0 0 1-1.644 1.572c-.7.38-1.482.57-2.346.57-.872 0-1.656-.19-2.352-.57a4.213 4.213 0 0 1-1.638-1.572c-.396-.668-.594-1.418-.594-2.25 0-.824.198-1.566.594-2.226a4.197 4.197 0 0 1 1.638-1.554c.696-.376 1.48-.564 2.352-.564zm.036 2.076c-.368 0-.71.1-1.026.3-.316.2-.568.474-.756.822a2.397 2.397 0 0 0-.282 1.158c0 .424.094.812.282 1.164.188.352.44.63.756.834.316.204.658.306 1.026.306.36 0 .694-.102 1.002-.306.308-.204.55-.48.726-.828.176-.348.264-.738.264-1.17 0-.424-.088-.81-.264-1.158a2.09 2.09 0 0 0-.72-.822c-.304-.2-.64-.3-1.008-.3zM177.528 22l-1.116-2.268h-1.32V22h-2.496v-8.412h3.924c1.128 0 2.002.26 2.622.78.62.52.93 1.256.93 2.208 0 .616-.122 1.15-.366 1.602a2.71 2.71 0 0 1-1.05 1.074L180.36 22h-2.832zm-2.436-4.188h1.428c.376 0 .666-.1.87-.3.204-.2.306-.488.306-.864 0-.368-.102-.65-.306-.846-.204-.196-.494-.294-.87-.294h-1.428v2.304zm14.2-.168h2.148v3.42c-.456.32-1.02.584-1.692.792a6.46 6.46 0 0 1-1.908.312c-.856 0-1.628-.19-2.316-.57a4.205 4.205 0 0 1-1.62-1.566c-.392-.664-.588-1.412-.588-2.244 0-.824.202-1.568.606-2.232a4.217 4.217 0 0 1 1.68-1.56c.716-.376 1.518-.564 2.406-.564.64 0 1.28.116 1.92.348.64.232 1.184.548 1.632.948l-1.416 1.704a3.347 3.347 0 0 0-1.014-.672 2.844 2.844 0 0 0-1.134-.252c-.4 0-.762.1-1.086.3-.324.2-.578.474-.762.822a2.439 2.439 0 0 0-.276 1.158c0 .432.094.824.282 1.176.188.352.446.628.774.828.328.2.692.3 1.092.3.36 0 .784-.116 1.272-.348v-2.1zm5.884-4.056h6.876v1.92h-4.38v1.32h3.972v1.92h-3.972v1.332h4.5V22h-6.996v-8.412zm14.824 0c.648 0 1.216.086 1.704.258.488.172.864.418 1.128.738.264.32.396.696.396 1.128 0 .424-.128.8-.384 1.128a1.986 1.986 0 0 1-1.044.684c.512.104.922.35 1.23.738.308.388.462.85.462 1.386 0 .472-.136.886-.408 1.242-.272.356-.658.63-1.158.822-.5.192-1.082.288-1.746.288h-4.308v-8.412H210zm-.132 3.3c.248 0 .444-.066.588-.198a.689.689 0 0 0 .216-.534.638.638 0 0 0-.216-.51c-.144-.124-.34-.186-.588-.186h-1.512v1.428h1.512zm0 3.24c.32.008.574-.06.762-.204a.701.701 0 0 0 .282-.588.631.631 0 0 0-.282-.546c-.188-.132-.442-.194-.762-.186h-1.512v1.524h1.512zm11.248-6.696c.864 0 1.646.188 2.346.564.7.376 1.248.894 1.644 1.554.396.66.594 1.402.594 2.226 0 .832-.198 1.582-.594 2.25a4.202 4.202 0 0 1-1.644 1.572c-.7.38-1.482.57-2.346.57-.872 0-1.656-.19-2.352-.57a4.213 4.213 0 0 1-1.638-1.572c-.396-.668-.594-1.418-.594-2.25 0-.824.198-1.566.594-2.226a4.197 4.197 0 0 1 1.638-1.554c.696-.376 1.48-.564 2.352-.564zm.036 2.076c-.368 0-.71.1-1.026.3-.316.2-.568.474-.756.822a2.397 2.397 0 0 0-.282 1.158c0 .424.094.812.282 1.164.188.352.44.63.756.834.316.204.658.306 1.026.306.36 0 .694-.102 1.002-.306.308-.204.55-.48.726-.828.176-.348.264-.738.264-1.17 0-.424-.088-.81-.264-1.158a2.09 2.09 0 0 0-.72-.822c-.304-.2-.64-.3-1.008-.3zm7.456-1.92h2.904l1.392 2.196 1.404-2.196h2.94l-2.748 4.02 3 4.392h-3l-1.596-2.4-1.572 2.4h-2.916l2.976-4.284-2.784-4.128z"/></g></g></svg>