<svg width="133" height="36" viewBox="0 0 133 36" xmlns="http://www.w3.org/2000/svg"><title>uses-cfml</title><g fill="none" fill-rule="evenodd"><path fill="#45A4B8" fill-rule="nonzero" d="M25.083 0h107.92v35H25.083z"/><path fill="#38C1D0" fill-rule="nonzero" d="M0 .029h63.125v35H0z"/><g fill-rule="nonzero" fill="#FFF"><path d="M20.107 13.469v5.7c.04.81-.279 1.597-.87 2.153a3.305 3.305 0 0 1-2.317.794 3.329 3.329 0 0 1-2.326-.782 2.784 2.784 0 0 1-.861-2.171v-5.7h1.477v5.7c-.031.473.124.94.434 1.3a1.7 1.7 0 0 0 1.277.45c1.14 0 1.711-.6 1.711-1.8v-5.644h1.475zM28.789 19.8a1.03 1.03 0 0 0-.4-.867 4.759 4.759 0 0 0-1.427-.615 6.89 6.89 0 0 1-1.641-.691 2.189 2.189 0 0 1-1.166-1.91c-.008-.669.307-1.3.845-1.697a3.4 3.4 0 0 1 2.183-.668c.547-.01 1.09.102 1.588.328.447.202.829.526 1.1.935a2.4 2.4 0 0 1 .4 1.345h-1.482c.02-.39-.133-.77-.419-1.037a1.738 1.738 0 0 0-1.2-.375c-.4-.025-.796.084-1.128.309a1.029 1.029 0 0 0-.4.864c.003.317.166.61.434.779.442.275.925.48 1.43.606a6.54 6.54 0 0 1 1.6.673c.362.212.666.51.885.867.194.35.29.746.281 1.146a2.03 2.03 0 0 1-.817 1.7 3.545 3.545 0 0 1-2.218.63 4.168 4.168 0 0 1-1.7-.343 2.859 2.859 0 0 1-1.207-.946c-.29-.41-.44-.903-.431-1.406h1.482c-.024.43.153.845.48 1.125a2.1 2.1 0 0 0 1.377.4c.412.03.822-.08 1.163-.313.257-.2.402-.513.388-.839zM39.2 18.191h-3.5V20.8h4.1V22h-5.589v-8.531h5.537v1.2h-4.054v2.351h3.5zM48.1 19.8a1.03 1.03 0 0 0-.4-.867 4.759 4.759 0 0 0-1.427-.615 6.89 6.89 0 0 1-1.641-.691 2.189 2.189 0 0 1-1.166-1.91 2.079 2.079 0 0 1 .841-1.7 3.4 3.4 0 0 1 2.183-.668c.547-.01 1.09.102 1.588.328.447.202.829.526 1.1.935a2.4 2.4 0 0 1 .4 1.345H48.1c.02-.39-.133-.77-.419-1.037a1.738 1.738 0 0 0-1.2-.375c-.4-.025-.796.084-1.128.309a1.029 1.029 0 0 0-.4.864c.003.317.166.61.434.779.442.275.925.48 1.43.606a6.54 6.54 0 0 1 1.6.673c.362.212.666.51.885.867.194.35.29.746.281 1.146a2.03 2.03 0 0 1-.817 1.7 3.545 3.545 0 0 1-2.218.63 4.168 4.168 0 0 1-1.7-.343 2.859 2.859 0 0 1-1.207-.946c-.29-.41-.44-.903-.431-1.406h1.482c-.024.43.153.845.48 1.125a2.1 2.1 0 0 0 1.377.4c.412.03.822-.08 1.163-.313.256-.2.4-.511.388-.836z"/></g><path d="M82.928 16.648a3.012 3.012 0 0 0-.942-.834c-.364-.204-.718-.306-1.062-.306a1.87 1.87 0 0 0-1.02.288 2.019 2.019 0 0 0-.72.798c-.176.34-.264.722-.264 1.146 0 .424.088.806.264 1.146.176.34.416.608.72.804.304.196.644.294 1.02.294.32 0 .662-.088 1.026-.264.364-.176.69-.416.978-.72l1.44 1.536a5.113 5.113 0 0 1-1.65 1.188c-.644.296-1.282.444-1.914.444-.84 0-1.598-.19-2.274-.57a4.128 4.128 0 0 1-1.59-1.578c-.384-.672-.576-1.424-.576-2.256 0-.816.196-1.554.588-2.214a4.175 4.175 0 0 1 1.62-1.554c.688-.376 1.46-.564 2.316-.564.632 0 1.264.136 1.896.408.632.272 1.16.636 1.584 1.092l-1.44 1.716zm4.696-3.06h6.528v1.92H90.12v1.68h3.744v1.92H90.12V22h-2.496v-8.412zm9.928 0h2.676l2.256 4.668 2.244-4.668h2.676V22h-2.196v-4.992l-1.92 4.164h-1.62l-1.92-4.164V22h-2.196v-8.412zm13.768 0h2.496v6.324h3.528V22h-6.024v-8.412z" fill="#FFF"/></g></svg>